<svg version="1" xmlns="http://www.w3.org/2000/svg" width="682.667" height="682.667" viewBox="0 0 512.000000 512.000000"><path d="M0 256v256h512V0H0v256zM282.5 82.6c28.3 3.9 56.7 16.1 81.6 35.1 33 25.1 57.4 65.6 65.1 108.2 2.5 13.8 3 42.7.9 55.6-8.4 52.9-38.8 98.7-83.1 125.2-18.8 11.3-42.5 19.9-64.5 23.4-10.3 1.7-42.6 1.7-53 0-16.1-2.5-39.4-10-53.5-17.1-63.1-31.8-101.6-101.5-95.1-171.9 1.4-14.8 3.2-24.4 7.3-37.1 16.5-51.6 54.6-92.3 104.3-111.5 29.5-11.4 57-14.4 90-9.9z"/><path d="M231.3 107.5c-13.7 2.6-38.3 10.6-44.2 14.4-2.2 1.4 34.5 39.4 37.4 38.8 17.1-4.2 22.3-4.9 35-4.4 8.8.3 15.7 1.2 21.4 2.7l8.5 2.2 18.2-18.8c10.1-10.4 18.3-19.2 18.4-19.5.1-1.8-26-11.2-40-14.4-10.2-2.3-44.5-3-54.7-1zM239.3 182.6c-22 4.8-43.5 22.5-52.4 43.1-5.8 13.4-7.6 32.6-4.4 47.8 2.9 14 13 30.3 25.4 40.8 19.8 16.9 48.1 22 73.1 13.3 11.2-4 17.5-8.1 28-18.6 8.2-8.1 10.3-10.9 14.3-19 6.3-12.8 8.1-21.9 7.5-37.5-.8-18.4-5.4-30.4-17.3-44.8-10-12.1-26.4-22.1-41.3-25.2-8.9-1.8-24.4-1.8-32.9.1zM119.7 191.8c-7.8 17.3-12 33.2-13.8 51.9-1.5 15.3-.1 33 3.7 48.5 2.6 10.4 12 34.8 13.4 34.8.4 0 9-8.7 19.2-19.3l18.4-19.2-1.8-7c-3.9-14.9-3.9-36.9.1-51l2-7-18.7-18.8c-10.3-10.3-19-18.7-19.3-18.7-.3 0-1.8 2.6-3.2 5.8zM369.7 204.8c-17.4 17.4-18.7 19-17.9 21.3 5.5 14.3 5.6 45.4.3 59.2-1.1 2.8-.7 3.4 17.5 22.3 10.3 10.7 19 19.4 19.4 19.4.7 0 1.5-1.7 7.6-16.8 14.8-36.8 13.3-79.2-4.3-118.4-1.4-3.2-2.9-5.8-3.2-5.8-.3 0-9.1 8.5-19.4 18.8zM203.9 370.6l-19.1 19.1 9.4 4C215.7 403.1 234 407 256 407c11.2 0 27.5-1.9 35.5-4 14.1-3.8 34.5-11.9 34.5-13.7 0-.4-8.3-9.1-18.5-19.3l-18.6-18.6-9.2 2.4c-13.3 3.6-34.1 3.6-47.4 0l-9.2-2.4-19.2 19.2z"/></svg>