<svg version="1" xmlns="http://www.w3.org/2000/svg" width="682.667" height="682.667" viewBox="0 0 512.000000 512.000000"><path d="M0 256v256h512V0H0v256zm189.2-126.8c.3 48.8.3 49.3 2.5 52.8 1.2 2 4 4.6 6.1 5.8 3.9 2.2 4.3 2.2 52.6 2.2H299v4.8c0 4.7-.1 4.8-4.7 7.1-9 4.3-21.1 13.1-28.8 20.8-32.1 32.3-41.1 81.4-22.3 122.2 10.6 23.2 28.8 42.3 50.1 52.7l5.9 2.9-.4 10.7c-.4 12.3-1.5 14.8-8.8 18.5l-4.4 2.3H49.4l-4.4-2.3c-2.5-1.2-5.5-3.7-6.8-5.6l-2.2-3.4.2-165.3c.3-165 .3-165.3 2.4-168.1 1.1-1.5 4-3.8 6.4-5.1l4.4-2.2h139.5l.3 49.2zM222.4 82c5 2.4 74 71.2 75.5 75.3.6 1.6 1.1 4.6 1.1 6.8v3.9h-87V80h3.2c1.7 0 5 .9 7.2 2zm144.1 132.6c28.3 7.6 53.5 32.3 61.6 60 6 20.9 3.4 48-6.2 64.9l-2.8 5.1 27.4 27.4c28.9 28.8 30.8 31.4 28.6 36.9-.7 1.5-5.7 7.2-11.2 12.7-9.9 9.9-9.9 9.9-14.9 9.9h-5l-27.8-27.8-27.9-27.9-5.4 2.8c-29.1 14.7-65 12-90.6-7-18.1-13.3-30.2-31.4-34.9-52.3-2.5-11.2-2.3-29.1.5-40.7 8-33 37.2-60.2 70.6-65.7 7.6-1.2 31.1-.2 38 1.7z"/><path d="M335.6 257c-10.8 1.9-23.1 10.5-29.4 20.5-8.1 12.8-8.1 32.2 0 45 4.2 6.6 11.9 13.6 18.5 16.7 28.8 13.6 62.3-7.4 62.3-39.1 0-14.4-6-26.1-18.2-35.3-8.8-6.7-21.9-9.8-33.2-7.8z"/></svg>